<svg width="41" height="41" viewBox="0 0 41 41" fill="none" xmlns="http://www.w3.org/2000/svg">
<g clip-path="url(#clip0_318_21918)">
<path fill-rule="evenodd" clip-rule="evenodd" d="M20 5C11.1635 5 4 12.1635 4 21C4 29.8365 11.1635 37 20 37C28.8365 37 36 29.8365 36 21C36 12.1635 28.8365 5 20 5ZM16.4822 12.5182C17.3924 12.4768 17.6833 12.4667 20.0008 12.4667H19.9981C22.3164 12.4667 22.6061 12.4768 23.5164 12.5182C24.4249 12.5598 25.0453 12.7037 25.5893 12.9147C26.1511 13.1325 26.6257 13.424 27.1004 13.8987C27.5751 14.373 27.8667 14.8491 28.0853 15.4103C28.2951 15.9529 28.4391 16.573 28.4818 17.4815C28.5227 18.3917 28.5333 18.6825 28.5333 21.0001C28.5333 23.3176 28.5227 23.6077 28.4818 24.518C28.4391 25.4261 28.2951 26.0463 28.0853 26.5891C27.8667 27.1502 27.5751 27.6263 27.1004 28.1006C26.6263 28.5753 26.1509 28.8675 25.5899 29.0855C25.0469 29.2965 24.4261 29.4403 23.5177 29.4819C22.6074 29.5234 22.3175 29.5335 19.9997 29.5335C17.6824 29.5335 17.3917 29.5234 16.4815 29.4819C15.5732 29.4403 14.9529 29.2965 14.41 29.0855C13.8491 28.8675 13.373 28.5753 12.8989 28.1006C12.4243 27.6263 12.1328 27.1502 11.9147 26.5889C11.7038 26.0463 11.56 25.4263 11.5182 24.5178C11.477 23.6076 11.4667 23.3176 11.4667 21.0001C11.4667 18.6825 11.4773 18.3915 11.5181 17.4813C11.5589 16.5732 11.7029 15.9529 11.9145 15.4101C12.1331 14.8491 12.4247 14.373 12.8994 13.8987C13.3737 13.4242 13.8498 13.1326 14.4111 12.9147C14.9537 12.7037 15.5737 12.5598 16.4822 12.5182Z" fill="white"/>
<path fill-rule="evenodd" clip-rule="evenodd" d="M19.2353 14.006C19.3839 14.0058 19.5438 14.0059 19.7163 14.006L20.0008 14.006C22.2792 14.006 22.5493 14.0142 23.449 14.0551C24.281 14.0932 24.7325 14.2322 25.0333 14.349C25.4316 14.5036 25.7155 14.6886 26.014 14.9872C26.3127 15.2859 26.4975 15.5704 26.6526 15.9686C26.7694 16.269 26.9086 16.7206 26.9465 17.5526C26.9873 18.4522 26.9962 18.7224 26.9962 20.9997C26.9962 23.2771 26.9873 23.5473 26.9465 24.4469C26.9084 25.2789 26.7694 25.7304 26.6526 26.0309C26.4979 26.4291 26.3127 26.7127 26.014 27.0112C25.7153 27.3098 25.4317 27.4948 25.0333 27.6494C24.7329 27.7668 24.281 27.9054 23.449 27.9434C22.5494 27.9844 22.2792 27.9932 20.0008 27.9932C17.7222 27.9932 17.4521 27.9844 16.5525 27.9434C15.7205 27.905 15.269 27.766 14.968 27.6492C14.5698 27.4946 14.2853 27.3096 13.9867 27.011C13.688 26.7123 13.5031 26.4286 13.3481 26.0302C13.2313 25.7298 13.0921 25.2782 13.0542 24.4462C13.0133 23.5466 13.0051 23.2764 13.0051 20.9976C13.0051 18.7188 13.0133 18.45 13.0542 17.5504C13.0923 16.7184 13.2313 16.2669 13.3481 15.9661C13.5027 15.5678 13.688 15.2834 13.9867 14.9848C14.2853 14.6861 14.5698 14.5012 14.968 14.3462C15.2688 14.2288 15.7205 14.0902 16.5525 14.0519C17.3397 14.0164 17.6449 14.0057 19.2353 14.0039V14.006ZM24.5559 15.423C23.9905 15.423 23.5318 15.8811 23.5318 16.4466C23.5318 17.012 23.9905 17.4706 24.5559 17.4706C25.1212 17.4706 25.5799 17.012 25.5799 16.4466C25.5799 15.8813 25.1212 15.4226 24.5559 15.4226V15.423ZM15.6185 21.0017C15.6185 18.5816 17.5805 16.6195 20.0006 16.6194C22.4207 16.6194 24.3823 18.5816 24.3823 21.0017C24.3823 23.4218 22.4209 25.3831 20.0008 25.3831C17.5807 25.3831 15.6185 23.4218 15.6185 21.0017Z" fill="white"/>
<path d="M20.0007 18.1562C21.5716 18.1562 22.8452 19.4297 22.8452 21.0007C22.8452 22.5716 21.5716 23.8452 20.0007 23.8452C18.4297 23.8452 17.1562 22.5716 17.1562 21.0007C17.1562 19.4297 18.4297 18.1562 20.0007 18.1562Z" fill="white"/>
</g>
<defs>
<clipPath id="clip0_318_21918">
<rect width="32" height="32" fill="white" transform="translate(4 5)"/>
</clipPath>
</defs>
</svg>
